# xmcd
#
# Track frame offsets: 
#        150
#        24680
#        39398
#        53377
#        68092
#        82552
#        102494
#        122916
#        147417
#        165880
#        185953
#        204777
#        226911
#        245543
#        266655
#        298305
#
# Disc length: 4127 seconds
#
# Revision: 2
# Processed by: cddbd v1.5.2PL0 Copyright (c) Steve Scherf et al.
# Submitted via: ExactAudioCopyFreeDBPlugin 1.0
#
DISCID=db101d10
DTITLE=Undo - The Loft Club Vol. 2
DYEAR=2004
DGENRE=UK Garage, Electro
TTITLE0=Spunky - Lovely Night (Undo and Vicknoise Breath Remix)
TTITLE1=Superpitcher - To Turn You On
TTITLE2=Iñaqui Marín - Schmerzraum
TTITLE3=Smash TV - Intruder
TTITLE4=Sami Koivikko - Materialist
TTITLE5=Swayzak - State Of Disgrace (Headgear Remix)
TTITLE6=Agoria - Snake Hips
TTITLE7=Mirrorball (Kiki and Silversurfer Warehouse Daze Remix)
TTITLE8=Detroit Grand Pubahs - The Clapper (Jesper Dahlbäck Remix)
TTITLE9=Tiefschwarz - Ghostrack (Black Strobe Remix)
TTITLE10=Hacker, The, Millimetric, David Carretta - Moskow Reise (Blac
TTITLE10=k Strobe Remix)
TTITLE11=Kiki and Silversurfer - Wasp
TTITLE12=Die Raketen - The Sound Für Zwischendurch (Paul Kalkbrenner R
TTITLE12=emix)
TTITLE13=Basteroid - Against Luftwiderstand
TTITLE14=Oxide and Neutrino - Shoot 2 Kill
TTITLE15=DATA - DATA
EXTD=
EXTT0=
EXTT1=
EXTT2=
EXTT3=
EXTT4=
EXTT5=
EXTT6=
EXTT7=
EXTT8=
EXTT9=
EXTT10=
EXTT11=
EXTT12=
EXTT13=
EXTT14=
EXTT15=
PLAYORDER=
